<?xml version="1.0" encoding="UTF-8" standalone="no"?>
<!-- Created with Inkscape (http://www.inkscape.org/) -->

<svg
   xmlns:dc="http://purl.org/dc/elements/1.1/"
   xmlns:cc="http://creativecommons.org/ns#"
   xmlns:rdf="http://www.w3.org/1999/02/22-rdf-syntax-ns#"
   xmlns:svg="http://www.w3.org/2000/svg"
   xmlns="http://www.w3.org/2000/svg"
   xmlns:sodipodi="http://sodipodi.sourceforge.net/DTD/sodipodi-0.dtd"
   xmlns:inkscape="http://www.inkscape.org/namespaces/inkscape"
   width="744.09448819"
   height="1052.3622047"
   id="svg2"
   version="1.1"
   inkscape:version="0.47pre4 r22446"
   sodipodi:docname="New document 1">
  <defs
     id="defs4">
    <inkscape:perspective
       sodipodi:type="inkscape:persp3d"
       inkscape:vp_x="0 : 526.18109 : 1"
       inkscape:vp_y="0 : 1000 : 0"
       inkscape:vp_z="744.09448 : 526.18109 : 1"
       inkscape:persp3d-origin="372.04724 : 350.78739 : 1"
       id="perspective10" />
    <inkscape:perspective
       id="perspective3672"
       inkscape:persp3d-origin="0.5 : 0.33333333 : 1"
       inkscape:vp_z="1 : 0.5 : 1"
       inkscape:vp_y="0 : 1000 : 0"
       inkscape:vp_x="0 : 0.5 : 1"
       sodipodi:type="inkscape:persp3d" />
  </defs>
  <sodipodi:namedview
     id="base"
     pagecolor="#ffffff"
     bordercolor="#666666"
     borderopacity="1.0"
     inkscape:pageopacity="0.0"
     inkscape:pageshadow="2"
     inkscape:zoom="0.70710678"
     inkscape:cx="297.6947"
     inkscape:cy="696.48199"
     inkscape:document-units="px"
     inkscape:current-layer="layer1"
     showgrid="false"
     inkscape:window-width="1070"
     inkscape:window-height="807"
     inkscape:window-x="57"
     inkscape:window-y="22"
     inkscape:window-maximized="0" />
  <metadata
     id="metadata7">
    <rdf:RDF>
      <cc:Work
         rdf:about="">
        <dc:format>image/svg+xml</dc:format>
        <dc:type
           rdf:resource="http://purl.org/dc/dcmitype/StillImage" />
        <dc:title></dc:title>
      </cc:Work>
    </rdf:RDF>
  </metadata>
  <g
     inkscape:label="Layer 1"
     inkscape:groupmode="layer"
     id="layer1">
    <g
       id="g3625"
       transform="translate(9.9142081,19.321403)">
      <path
         transform="matrix(1.1521918,0,0,1.1521918,205.50468,146.35476)"
         d="m 200.48175,181.90014 -136.963499,0 L 132,63.28627 200.48175,181.90014 z"
         inkscape:randomized="0"
         inkscape:rounded="0"
         inkscape:flatsided="true"
         sodipodi:arg2="1.5707963"
         sodipodi:arg1="0.52359878"
         sodipodi:r2="39.537956"
         sodipodi:r1="79.075912"
         sodipodi:cy="142.36218"
         sodipodi:cx="132"
         sodipodi:sides="3"
         id="path2851"
         style="fill:none;stroke:#aa0000;stroke-width:3.47164416;stroke-linecap:butt;stroke-linejoin:round;stroke-miterlimit:4;stroke-opacity:1;stroke-dasharray:13.88657687, 6.94328844;stroke-dashoffset:0"
         sodipodi:type="star" />
      <g
         id="g2844">
        <g
           id="g2834">
          <path
             transform="matrix(0.5309287,0,0,0.5309287,115.13109,162.77729)"
             d="m 361.63461,367.47876 c 0,27.89459 -22.61303,50.50763 -50.50763,50.50763 -27.89459,0 -50.50762,-22.61304 -50.50762,-50.50763 0,-27.89459 22.61303,-50.50763 50.50762,-50.50763 27.8946,0 50.50763,22.61304 50.50763,50.50763 z"
             sodipodi:ry="50.507626"
             sodipodi:rx="50.507626"
             sodipodi:cy="367.47876"
             sodipodi:cx="311.12698"
             id="path2816"
             style="fill:#c83737;fill-opacity:1;stroke:none"
             sodipodi:type="arc" />
          <path
             transform="matrix(0.5309287,0,0,0.5309287,269.68442,162.77729)"
             d="m 361.63461,367.47876 c 0,27.89459 -22.61303,50.50763 -50.50763,50.50763 -27.89459,0 -50.50762,-22.61304 -50.50762,-50.50763 0,-27.89459 22.61303,-50.50763 50.50762,-50.50763 27.8946,0 50.50763,22.61304 50.50763,50.50763 z"
             sodipodi:ry="50.507626"
             sodipodi:rx="50.507626"
             sodipodi:cy="367.47876"
             sodipodi:cx="311.12698"
             id="path2820"
             style="fill:#c83737;fill-opacity:1;stroke:none"
             sodipodi:type="arc" />
        </g>
        <g
           id="g2838"
           transform="matrix(0,-1,1,0,-0.28831024,638.19965)">
          <path
             sodipodi:type="arc"
             style="fill:#c83737;fill-opacity:1;stroke:none"
             id="path2842"
             sodipodi:cx="311.12698"
             sodipodi:cy="367.47876"
             sodipodi:rx="50.507626"
             sodipodi:ry="50.507626"
             d="m 361.63461,367.47876 c 0,27.89459 -22.61303,50.50763 -50.50763,50.50763 -27.89459,0 -50.50762,-22.61304 -50.50762,-50.50763 0,-27.89459 22.61303,-50.50763 50.50762,-50.50763 27.8946,0 50.50763,22.61304 50.50763,50.50763 z"
             transform="matrix(0.5309287,0,0,0.5309287,255.68442,162.77729)" />
        </g>
      </g>
    </g>
    <g
       transform="matrix(-0.70710678,-0.70710678,0.70710678,-0.70710678,377.29793,803.77101)"
       id="g3824">
      <g
         id="g3826">
        <path
           transform="matrix(0.37542328,0.37542328,-0.37542328,0.37542328,461.61298,-145.43012)"
           d="m 361.63461,367.47876 c 0,27.89459 -22.61303,50.50763 -50.50763,50.50763 -27.89459,0 -50.50762,-22.61304 -50.50762,-50.50763 0,-27.89459 22.61303,-50.50763 50.50762,-50.50763 27.8946,0 50.50763,22.61304 50.50763,50.50763 z"
           sodipodi:ry="50.507626"
           sodipodi:rx="50.507626"
           sodipodi:cy="367.47876"
           sodipodi:cx="311.12698"
           id="path3828"
           style="fill:#93a7ac;fill-opacity:1;stroke:none"
           sodipodi:type="arc" />
        <path
           sodipodi:type="arc"
           style="fill:#93a7ac;fill-opacity:1;stroke:none"
           id="path3830"
           sodipodi:cx="311.12698"
           sodipodi:cy="367.47876"
           sodipodi:rx="50.507626"
           sodipodi:ry="50.507626"
           d="m 361.63461,367.47876 c 0,27.89459 -22.61303,50.50763 -50.50763,50.50763 -27.89459,0 -50.50762,-22.61304 -50.50762,-50.50763 0,-27.89459 22.61303,-50.50763 50.50762,-50.50763 27.8946,0 50.50763,22.61304 50.50763,50.50763 z"
           transform="matrix(0.37542328,0.37542328,-0.37542328,0.37542328,278.61297,-145.43012)" />
        <path
           sodipodi:type="arc"
           style="fill:#93a7ac;fill-opacity:1;stroke:none"
           id="path3832"
           sodipodi:cx="311.12698"
           sodipodi:cy="367.47876"
           sodipodi:rx="50.507626"
           sodipodi:ry="50.507626"
           d="m 361.63461,367.47876 a 50.507626,50.507626 0 1 1 -101.01525,0 50.507626,50.507626 0 1 1 101.01525,0 z"
           transform="matrix(0.37542328,0.37542328,-0.37542328,0.37542328,531.27341,-75.769695)" />
      </g>
      <path
         sodipodi:type="arc"
         style="fill:#93a7ac;fill-opacity:1;stroke:none"
         id="path3834"
         sodipodi:cx="311.12698"
         sodipodi:cy="367.47876"
         sodipodi:rx="50.507626"
         sodipodi:ry="50.507626"
         d="m 361.63461,367.47876 c 0,27.89459 -22.61303,50.50763 -50.50763,50.50763 -27.89459,0 -50.50762,-22.61304 -50.50762,-50.50763 0,-27.89459 22.61303,-50.50763 50.50762,-50.50763 27.8946,0 50.50763,22.61304 50.50763,50.50763 z"
         transform="matrix(0.37542328,0.37542328,-0.37542328,0.37542328,370.11297,-145.43012)" />
    </g>
    <g
       id="g3836"
       transform="translate(19.232977,2.0312241)">
      <g
         id="g3838">
        <path
           sodipodi:type="arc"
           style="fill:#93a7ac;fill-opacity:1;stroke:none"
           id="path3840"
           sodipodi:cx="311.12698"
           sodipodi:cy="367.47876"
           sodipodi:rx="50.507626"
           sodipodi:ry="50.507626"
           d="m 361.63461,367.47876 c 0,27.89459 -22.61303,50.50763 -50.50763,50.50763 -27.89459,0 -50.50762,-22.61304 -50.50762,-50.50763 0,-27.89459 22.61303,-50.50763 50.50762,-50.50763 27.8946,0 50.50763,22.61304 50.50763,50.50763 z"
           transform="matrix(0.37542328,0.37542328,-0.37542328,0.37542328,461.61298,-145.43012)" />
        <path
           transform="matrix(0.37542328,0.37542328,-0.37542328,0.37542328,278.61297,-145.43012)"
           d="m 361.63461,367.47876 c 0,27.89459 -22.61303,50.50763 -50.50763,50.50763 -27.89459,0 -50.50762,-22.61304 -50.50762,-50.50763 0,-27.89459 22.61303,-50.50763 50.50762,-50.50763 27.8946,0 50.50763,22.61304 50.50763,50.50763 z"
           sodipodi:ry="50.507626"
           sodipodi:rx="50.507626"
           sodipodi:cy="367.47876"
           sodipodi:cx="311.12698"
           id="path3842"
           style="fill:#93a7ac;fill-opacity:1;stroke:none"
           sodipodi:type="arc" />
        <path
           transform="matrix(0.37542328,0.37542328,-0.37542328,0.37542328,531.27341,-75.769695)"
           d="m 361.63461,367.47876 c 0,27.89459 -22.61303,50.50763 -50.50763,50.50763 -27.89459,0 -50.50762,-22.61304 -50.50762,-50.50763 0,-27.89459 22.61303,-50.50763 50.50762,-50.50763 27.8946,0 50.50763,22.61304 50.50763,50.50763 z"
           sodipodi:ry="50.507626"
           sodipodi:rx="50.507626"
           sodipodi:cy="367.47876"
           sodipodi:cx="311.12698"
           id="path3844"
           style="fill:#93a7ac;fill-opacity:1;stroke:none"
           sodipodi:type="arc" />
      </g>
      <path
         transform="matrix(0.37542328,0.37542328,-0.37542328,0.37542328,370.11297,-145.43012)"
         d="m 361.63461,367.47876 c 0,27.89459 -22.61303,50.50763 -50.50763,50.50763 -27.89459,0 -50.50762,-22.61304 -50.50762,-50.50763 0,-27.89459 22.61303,-50.50763 50.50762,-50.50763 27.8946,0 50.50763,22.61304 50.50763,50.50763 z"
         sodipodi:ry="50.507626"
         sodipodi:rx="50.507626"
         sodipodi:cy="367.47876"
         sodipodi:cx="311.12698"
         id="path3846"
         style="fill:#93a7ac;fill-opacity:1;stroke:none"
         sodipodi:type="arc" />
    </g>
    <g
       transform="matrix(0,1,-1,0,647.59405,26.86623)"
       id="g3872">
      <g
         id="g3874">
        <path
           transform="matrix(0.37542328,0.37542328,-0.37542328,0.37542328,461.61298,-145.43012)"
           d="m 361.63461,367.47876 a 50.507626,50.507626 0 1 1 -101.01525,0 50.507626,50.507626 0 1 1 101.01525,0 z"
           sodipodi:ry="50.507626"
           sodipodi:rx="50.507626"
           sodipodi:cy="367.47876"
           sodipodi:cx="311.12698"
           id="path3876"
           style="fill:#93a7ac;fill-opacity:1;stroke:none"
           sodipodi:type="arc" />
        <path
           sodipodi:type="arc"
           style="fill:#93a7ac;fill-opacity:1;stroke:none"
           id="path3878"
           sodipodi:cx="311.12698"
           sodipodi:cy="367.47876"
           sodipodi:rx="50.507626"
           sodipodi:ry="50.507626"
           d="m 361.63461,367.47876 a 50.507626,50.507626 0 1 1 -101.01525,0 50.507626,50.507626 0 1 1 101.01525,0 z"
           transform="matrix(0.37542328,0.37542328,-0.37542328,0.37542328,278.61297,-145.43012)" />
        <path
           sodipodi:type="arc"
           style="fill:#93a7ac;fill-opacity:1;stroke:none"
           id="path3880"
           sodipodi:cx="311.12698"
           sodipodi:cy="367.47876"
           sodipodi:rx="50.507626"
           sodipodi:ry="50.507626"
           d="m 361.63461,367.47876 a 50.507626,50.507626 0 1 1 -101.01525,0 50.507626,50.507626 0 1 1 101.01525,0 z"
           transform="matrix(0.37542328,0.37542328,-0.37542328,0.37542328,531.27341,-75.769695)" />
      </g>
      <path
         sodipodi:type="arc"
         style="fill:#93a7ac;fill-opacity:1;stroke:none"
         id="path3882"
         sodipodi:cx="311.12698"
         sodipodi:cy="367.47876"
         sodipodi:rx="50.507626"
         sodipodi:ry="50.507626"
         d="m 361.63461,367.47876 a 50.507626,50.507626 0 1 1 -101.01525,0 50.507626,50.507626 0 1 1 101.01525,0 z"
         transform="matrix(0.37542328,0.37542328,-0.37542328,0.37542328,370.11297,-145.43012)" />
    </g>
  </g>
</svg>
