<?xml version="1.0" encoding="UTF-8" standalone="no"?>
<!-- Created with Inkscape (http://www.inkscape.org/) -->

<svg
   xmlns:dc="http://purl.org/dc/elements/1.1/"
   xmlns:cc="http://creativecommons.org/ns#"
   xmlns:rdf="http://www.w3.org/1999/02/22-rdf-syntax-ns#"
   xmlns:svg="http://www.w3.org/2000/svg"
   xmlns="http://www.w3.org/2000/svg"
   xmlns:sodipodi="http://sodipodi.sourceforge.net/DTD/sodipodi-0.dtd"
   xmlns:inkscape="http://www.inkscape.org/namespaces/inkscape"
   width="744.09448819"
   height="1052.3622047"
   id="svg3653"
   version="1.1"
   inkscape:version="0.47pre4 r22446"
   sodipodi:docname="New document 2">
  <defs
     id="defs3655">
    <inkscape:perspective
       sodipodi:type="inkscape:persp3d"
       inkscape:vp_x="0 : 526.18109 : 1"
       inkscape:vp_y="0 : 1000 : 0"
       inkscape:vp_z="744.09448 : 526.18109 : 1"
       inkscape:persp3d-origin="372.04724 : 350.78739 : 1"
       id="perspective3661" />
  </defs>
  <sodipodi:namedview
     id="base"
     pagecolor="#ffffff"
     bordercolor="#666666"
     borderopacity="1.0"
     inkscape:pageopacity="0.0"
     inkscape:pageshadow="2"
     inkscape:zoom="1"
     inkscape:cx="334.08637"
     inkscape:cy="756.9583"
     inkscape:document-units="px"
     inkscape:current-layer="layer1"
     showgrid="false"
     inkscape:window-width="1863"
     inkscape:window-height="1036"
     inkscape:window-x="57"
     inkscape:window-y="22"
     inkscape:window-maximized="0" />
  <metadata
     id="metadata3658">
    <rdf:RDF>
      <cc:Work
         rdf:about="">
        <dc:format>image/svg+xml</dc:format>
        <dc:type
           rdf:resource="http://purl.org/dc/dcmitype/StillImage" />
        <dc:title></dc:title>
      </cc:Work>
    </rdf:RDF>
  </metadata>
  <g
     inkscape:label="Layer 1"
     inkscape:groupmode="layer"
     id="layer1">
    <g
       id="g4516"
       transform="matrix(0.48912147,0,0,0.48912147,89.686545,49.627213)">
      <path
         d="m 313.1473,285.6564 c 0,57.46287 -46.58286,104.04573 -104.04572,104.04573 -57.46287,0 -104.04573,-46.58286 -104.04573,-104.04573 0,-57.46286 46.58286,-104.04572 104.04573,-104.04572 57.46286,0 104.04572,46.58286 104.04572,104.04572 z"
         sodipodi:ry="104.04572"
         sodipodi:rx="104.04572"
         sodipodi:cy="285.6564"
         sodipodi:cx="209.10158"
         id="path3663"
         style="fill:#333333;fill-opacity:1;stroke:none"
         sodipodi:type="arc" />
      <path
         id="path4441"
         d="m 209.09375,195.53125 c -31.80324,0 -59.74206,16.49451 -75.78125,41.375 l 151.59375,0 c -16.03919,-24.88049 -44.00926,-41.375 -75.8125,-41.375 z m -75.78125,138.875 c 16.03919,24.88049 43.97801,41.375 75.78125,41.375 31.80324,0 59.77331,-16.49451 75.8125,-41.375 l -151.59375,0 z"
         style="fill:#b3b3b3;fill-opacity:1;stroke:none" />
      <rect
         ry="10.000001"
         rx="10"
         y="259.85239"
         x="130.28177"
         height="51.608044"
         width="20.714285"
         id="rect4448"
         style="fill:#bcd35f;fill-opacity:1;stroke:none" />
      <rect
         style="fill:#b3b3b3;fill-opacity:1;stroke:none"
         id="rect4450"
         width="20.714285"
         height="51.608044"
         x="185.16437"
         y="259.85239"
         rx="10"
         ry="10.000001" />
      <rect
         ry="10.000001"
         rx="10"
         y="259.85239"
         x="212.60567"
         height="51.608044"
         width="20.714285"
         id="rect4452"
         style="fill:#b3b3b3;fill-opacity:1;stroke:none" />
      <rect
         style="fill:#b3b3b3;fill-opacity:1;stroke:none"
         id="rect4454"
         width="20.714285"
         height="51.608044"
         x="240.04697"
         y="259.85239"
         rx="10"
         ry="10.000001" />
      <rect
         ry="10.000001"
         rx="10"
         y="259.85239"
         x="267.48828"
         height="51.608044"
         width="20.714285"
         id="rect4456"
         style="fill:#b3b3b3;fill-opacity:1;stroke:none" />
      <rect
         ry="10.000001"
         rx="10"
         y="259.85239"
         x="157.72307"
         height="51.608044"
         width="20.714285"
         id="rect4460"
         style="fill:#b3b3b3;fill-opacity:1;stroke:none" />
    </g>
    <g
       transform="matrix(0.48912147,0,0,0.48912147,255.76969,177.53688)"
       id="g4544">
      <path
         sodipodi:type="arc"
         style="fill:#333333;fill-opacity:1;stroke:none"
         id="path4546"
         sodipodi:cx="209.10158"
         sodipodi:cy="285.6564"
         sodipodi:rx="104.04572"
         sodipodi:ry="104.04572"
         d="m 313.1473,285.6564 c 0,57.46287 -46.58286,104.04573 -104.04572,104.04573 -57.46287,0 -104.04573,-46.58286 -104.04573,-104.04573 0,-57.46286 46.58286,-104.04572 104.04573,-104.04572 57.46286,0 104.04572,46.58286 104.04572,104.04572 z" />
      <path
         style="fill:#b3b3b3;fill-opacity:1;stroke:none"
         d="m 209.09375,195.53125 c -31.80324,0 -59.74206,16.49451 -75.78125,41.375 l 151.59375,0 c -16.03919,-24.88049 -44.00926,-41.375 -75.8125,-41.375 z m -75.78125,138.875 c 16.03919,24.88049 43.97801,41.375 75.78125,41.375 31.80324,0 59.77331,-16.49451 75.8125,-41.375 l -151.59375,0 z"
         id="path4548" />
      <rect
         style="fill:#bcd35f;fill-opacity:1;stroke:none"
         id="rect4550"
         width="20.714285"
         height="51.608044"
         x="130.28177"
         y="259.85239"
         rx="10"
         ry="10.000001" />
      <rect
         ry="10.000001"
         rx="10"
         y="259.85239"
         x="185.16437"
         height="51.608044"
         width="20.714285"
         id="rect4552"
         style="fill:#b3b3b3;fill-opacity:1;stroke:none" />
      <rect
         style="fill:#b3b3b3;fill-opacity:1;stroke:none"
         id="rect4554"
         width="20.714285"
         height="51.608044"
         x="212.60567"
         y="259.85239"
         rx="10"
         ry="10.000001" />
      <rect
         ry="10.000001"
         rx="10"
         y="259.85239"
         x="240.04697"
         height="51.608044"
         width="20.714285"
         id="rect4556"
         style="fill:#b3b3b3;fill-opacity:1;stroke:none" />
      <rect
         style="fill:#b3b3b3;fill-opacity:1;stroke:none"
         id="rect4558"
         width="20.714285"
         height="51.608044"
         x="267.48828"
         y="259.85239"
         rx="10"
         ry="10.000001" />
      <rect
         style="fill:#b3b3b3;fill-opacity:1;stroke:none"
         id="rect4560"
         width="20.714285"
         height="51.608044"
         x="157.72307"
         y="259.85239"
         rx="10"
         ry="10.000001" />
    </g>
  </g>
</svg>
